<?xml version="1.0" standalone="no"?>
<!DOCTYPE svg PUBLIC "-//W3C//DTD SVG 20010904//EN"
"http://www.w3.org/TR/2001/REC-SVG-20010904/DTD/svg10.dtd">
<svg version="1.0" xmlns="http://www.w3.org/2000/svg"
width="576.000000pt" height="297.000000pt" viewBox="0 0 576.000000 297.000000"
preserveAspectRatio="xMidYMid meet">

<g transform="translate(0.000000,297.000000) scale(0.100000,-0.100000)"
fill="#000000" stroke="none">
<path d="M4947 2958 c-33 -9 -38 -14 -35 -36 2 -18 10 -28 28 -32 28 -7 39
-38 18 -51 -7 -5 -37 -16 -67 -25 -45 -14 -55 -14 -62 -3 -14 22 -10 49 6 49
19 0 20 49 1 56 -22 8 -96 -15 -96 -31 0 -28 13 -45 35 -45 22 0 45 -34 31
-47 -6 -7 -115 -33 -137 -33 -27 0 -33 32 -10 50 15 11 19 22 14 39 -5 21 -10
22 -47 17 -52 -9 -67 -23 -55 -55 7 -16 15 -22 28 -18 12 3 22 -1 25 -10 10
-26 6 -33 -19 -33 -17 0 -32 -12 -54 -43 -17 -25 -48 -53 -73 -65 -24 -12
-374 -108 -778 -213 -404 -104 -800 -207 -880 -229 -337 -90 -458 -120 -484
-120 -42 0 -64 17 -77 58 -9 32 -8 50 11 113 58 192 0 339 -145 369 -133 28
-268 -31 -530 -230 -126 -96 -184 -125 -292 -147 -103 -21 -190 -9 -428 58
-152 42 -198 51 -296 56 -379 19 -595 -188 -576 -552 12 -209 88 -444 210
-645 75 -124 237 -298 369 -396 217 -161 452 -185 637 -65 39 26 43 31 26 36
-117 39 -238 126 -294 213 -55 86 -73 154 -69 262 3 85 7 102 38 158 21 41 51
77 84 103 109 88 180 108 382 111 148 3 151 4 187 31 44 33 65 72 101 187 53
166 106 208 250 197 45 -4 106 -14 136 -22 30 -9 111 -18 180 -21 218 -11 374
22 843 175 494 162 927 291 1467 437 390 105 418 105 530 -17 l55 -59 90 7
c89 8 90 8 93 36 6 47 -43 134 -112 202 -65 63 -86 109 -71 155 4 11 4 20 2
20 -2 0 -35 -14 -72 -31 -37 -16 -68 -29 -70 -27 -1 2 -6 13 -9 26 -6 16 -3
22 9 22 21 0 29 24 15 49 -12 23 -10 23 -63 9z"/>
<path d="M1560 1449 c-107 -21 -200 -93 -243 -188 -31 -68 -30 -206 2 -278 27
-62 102 -135 169 -166 40 -19 65 -22 162 -22 106 0 119 3 167 28 l52 27 3 140
3 141 -115 -3 -115 -3 -3 -40 c-4 -46 14 -65 65 -65 33 0 33 0 33 -49 0 -48
-1 -50 -36 -61 -50 -17 -129 -6 -174 24 -80 53 -110 197 -62 296 47 97 165
129 280 75 29 -13 59 -22 66 -19 8 3 26 23 40 44 23 35 24 39 8 53 -29 25 -95
54 -150 66 -60 12 -88 13 -152 0z"/>
<path d="M1992 1213 c3 -222 4 -241 25 -278 32 -59 70 -95 131 -122 48 -22 64
-25 141 -21 100 5 160 32 207 93 49 64 53 93 54 338 l0 227 -75 0 -75 0 0
-222 c0 -245 -3 -257 -59 -295 -42 -29 -95 -30 -139 -3 -56 34 -62 63 -62 305
l0 215 -76 0 -76 0 4 -237z"/>
<path d="M2692 1123 l3 -328 73 -3 72 -3 0 331 0 330 -75 0 -75 0 2 -327z"/>
<path d="M2940 1390 l0 -60 95 0 95 0 0 -270 0 -271 73 3 72 3 3 268 2 267 90
0 90 0 0 60 0 60 -260 0 -260 0 0 -60z"/>
<path d="M3550 1128 c-69 -176 -126 -325 -128 -330 -5 -11 115 -10 137 2 10 5
29 39 42 75 l23 65 127 0 127 0 22 -65 c12 -36 30 -70 40 -75 17 -9 140 -15
140 -6 0 2 -52 138 -116 302 -64 165 -120 311 -126 327 -10 26 -12 27 -87 27
l-76 0 -125 -322z m248 49 c23 -68 42 -126 42 -130 0 -4 -41 -7 -91 -7 -69 0
-90 3 -86 13 2 6 22 65 43 130 21 64 41 117 44 117 3 0 25 -55 48 -123z"/>
<path d="M4160 1431 c0 -12 0 -159 0 -328 l-1 -308 71 -3 70 -3 0 121 c0 102
3 122 16 127 40 15 68 -11 131 -122 34 -60 70 -113 80 -117 27 -10 153 -9 153
2 0 17 -142 240 -162 254 -20 14 -19 15 8 29 85 44 124 145 93 238 -16 48 -43
74 -102 100 -45 20 -73 24 -204 27 -150 4 -153 4 -153 -17z m295 -121 c29 -28
37 -67 20 -107 -20 -47 -53 -65 -117 -61 l-53 3 -3 84 c-2 46 0 91 3 99 9 23
120 10 150 -18z"/>
<path d="M2184 636 c-90 -39 -117 -175 -49 -246 15 -16 55 -38 89 -50 101 -36
157 -63 172 -84 20 -28 18 -112 -3 -148 -48 -82 -201 -91 -280 -16 -18 17 -26
19 -35 10 -9 -9 -7 -17 8 -33 32 -37 93 -59 164 -59 78 0 121 19 164 73 25 31
31 49 34 101 4 59 2 65 -28 99 -23 26 -54 44 -113 67 -115 43 -141 57 -160 90
-22 36 -21 67 1 109 39 72 129 90 221 45 28 -15 55 -24 58 -21 12 13 -8 37
-46 57 -47 24 -149 27 -197 6z"/>
<path d="M2777 636 c-135 -48 -206 -173 -195 -341 6 -98 43 -172 109 -225 60
-47 102 -60 194 -60 80 1 130 16 181 55 26 20 33 30 25 38 -9 9 -16 8 -29 -1
-9 -7 -41 -24 -70 -38 -45 -22 -64 -26 -120 -22 -108 6 -182 55 -226 148 -32
67 -30 217 3 280 54 103 119 144 231 144 63 1 84 -4 133 -28 39 -19 62 -25 69
-18 11 11 -31 44 -86 67 -44 19 -168 19 -219 1z"/>
<path d="M3250 330 c0 -313 0 -320 20 -320 19 0 20 7 20 155 l0 155 201 -2
202 -3 1 -150 c1 -143 2 -150 21 -150 20 0 20 7 20 315 0 308 0 315 -20 315
-19 0 -20 -7 -20 -148 l0 -147 -202 0 -203 0 0 150 c0 143 -1 150 -20 150 -20
0 -20 -7 -20 -320z"/>
<path d="M4097 636 c-79 -29 -149 -102 -173 -182 -19 -64 -18 -190 3 -253 20
-62 69 -122 131 -158 38 -22 61 -28 133 -31 76 -4 94 -1 141 20 68 31 114 78
147 148 22 47 26 68 25 150 0 80 -4 104 -25 150 -52 113 -143 170 -269 169
-41 0 -92 -6 -113 -13z m191 -31 c67 -20 114 -62 149 -133 24 -48 27 -68 27
-142 -1 -130 -45 -213 -139 -263 -31 -17 -58 -22 -120 -22 -70 0 -86 4 -127
28 -90 52 -128 130 -128 259 0 69 4 89 30 144 58 121 173 169 308 129z"/>
<path d="M4805 622 c-67 -32 -107 -74 -139 -142 -17 -36 -21 -65 -21 -150 0
-95 3 -110 28 -162 51 -103 143 -158 266 -158 83 0 128 14 187 59 125 95 153
319 56 460 -55 81 -120 114 -231 119 -78 3 -91 1 -146 -26z m251 -30 c48 -24
97 -77 121 -130 23 -50 24 -213 1 -263 -52 -118 -178 -180 -306 -149 -72 17
-126 60 -159 128 -25 50 -28 68 -28 152 0 75 4 104 21 140 29 62 87 117 142
135 62 20 156 14 208 -13z"/>
<path d="M5417 643 c-4 -3 -7 -147 -7 -320 l0 -313 169 0 c136 0 170 3 174 14
3 8 3 17 0 20 -4 3 -73 6 -155 6 l-148 0 0 300 c0 243 -3 300 -13 300 -8 0
-17 -3 -20 -7z"/>
</g>
</svg>
